<svg xmlns="http://www.w3.org/2000/svg" version="1.1" xmlns:xlink="http://www.w3.org/1999/xlink" xmlns:svgjs="http://svgjs.dev/svgjs" width="1000" height="169" viewBox="0 0 1000 169"><g transform="matrix(1,0,0,1,-0.6060606060606233,-0.1791493159502835)"><svg viewBox="0 0 396 67" data-background-color="#ffffff" preserveAspectRatio="xMidYMid meet" height="169" width="1000" xmlns="http://www.w3.org/2000/svg" xmlns:xlink="http://www.w3.org/1999/xlink"><g id="tight-bounds" transform="matrix(1,0,0,1,0.2400000000000091,0.0710236933057331)"><svg viewBox="0 0 395.52 66.85795261338855" height="66.85795261338855" width="395.52"><g><svg viewBox="0 0 535.8162386436062 90.57336340189704" height="66.85795261338855" width="395.52"><g><rect width="8.127362570441898" height="90.57336340189704" x="110.89305782593419" y="0" fill="#ffffff" opacity="1" stroke-width="0" stroke="transparent" fill-opacity="1" class="rect-qz-0" data-fill-palette-color="primary" rx="1%" id="qz-0" data-palette-color="#ca3433"></rect></g><g transform="matrix(1,0,0,1,140.2962386436062,0.2253068741340698)"><svg viewBox="0 0 395.52 90.1227496536289" height="90.1227496536289" width="395.52"><g id="textblocktransform"><svg viewBox="0 0 395.52 90.1227496536289" height="90.1227496536289" width="395.52" id="textblock"><g><svg viewBox="0 0 395.52 90.1227496536289" height="90.1227496536289" width="395.52"><g transform="matrix(1,0,0,1,0,0)"><svg width="395.52" viewBox="2.69 -39.11 229.05 52.2" height="90.1227496536289" data-palette-color="#ca3433"><path d="M22.41-4.83L22.41-2.2Q20.9-1.03 18.81-0.27 16.72 0.49 14.26 0.49L14.26 0.49Q11.62 0.49 9.48-0.43 7.35-1.34 5.83-2.98 4.32-4.61 3.5-6.9 2.69-9.18 2.69-11.89L2.69-11.89Q2.69-15.04 3.76-17.7 4.83-20.36 6.7-22.29 8.57-24.22 11.11-25.29 13.65-26.37 16.55-26.37L16.55-26.37Q17.24-26.37 18.03-26.31 18.82-26.25 19.6-26.1 20.39-25.95 21.12-25.74 21.85-25.54 22.41-25.24L22.41-25.24 21.44-21.19 20.9-20.95Q20.41-21.31 19.79-21.63 19.17-21.95 18.47-22.17 17.77-22.39 17.03-22.52 16.28-22.66 15.58-22.66L15.58-22.66Q13.94-22.66 12.49-22.01 11.04-21.36 9.94-20.13 8.84-18.9 8.2-17.1 7.57-15.31 7.57-13.01L7.57-13.01Q7.57-10.67 8.24-8.89 8.91-7.1 10.08-5.88 11.25-4.66 12.87-4.04 14.48-3.42 16.36-3.42L16.36-3.42Q17.48-3.42 19.07-3.7 20.65-3.98 22.41-4.83L22.41-4.83ZM29.64 0L29.64-39.11 34.27-39.11 34.27-21.68Q35.15-22.46 36.23-23.29 37.3-24.12 38.55-24.8 39.79-25.49 41.16-25.93 42.53-26.37 43.99-26.37L43.99-26.37Q45.75-26.37 47.18-25.7 48.61-25.02 49.63-23.82 50.66-22.61 51.21-20.91 51.76-19.21 51.76-17.14L51.76-17.14 51.76 0 47.12 0 47.12-16.75Q47.12-18.16 46.71-19.24 46.31-20.31 45.62-21.03 44.92-21.75 43.94-22.11 42.97-22.46 41.84-22.46L41.84-22.46Q39.79-22.46 37.96-21.39 36.13-20.31 34.27-18.55L34.27-18.55 34.27 0 29.64 0ZM60.32 0L60.32-25.88 64.96-25.88 64.96 0 60.32 0ZM62.67-31.49L62.67-31.49Q62.06-31.49 61.52-31.71 60.98-31.93 60.59-32.32 60.2-32.71 59.98-33.24 59.76-33.76 59.76-34.4L59.76-34.4Q59.76-35.03 60-35.6 60.25-36.16 60.65-36.57 61.05-36.99 61.6-37.22 62.15-37.45 62.76-37.45L62.76-37.45Q63.35-37.45 63.87-37.22 64.4-36.99 64.79-36.57 65.18-36.16 65.4-35.61 65.62-35.06 65.62-34.45L65.62-34.45Q65.62-33.79 65.38-33.24 65.13-32.69 64.73-32.31 64.33-31.93 63.79-31.71 63.25-31.49 62.67-31.49ZM73.63 0L73.63-39.11 78.26-39.11 78.26 0 73.63 0ZM86.83 0L86.83-25.88 91.47-25.88 91.47 0 86.83 0ZM89.17-31.49L89.17-31.49Q88.56-31.49 88.03-31.71 87.49-31.93 87.1-32.32 86.71-32.71 86.49-33.24 86.27-33.76 86.27-34.4L86.27-34.4Q86.27-35.03 86.51-35.6 86.76-36.16 87.16-36.57 87.56-36.99 88.11-37.22 88.66-37.45 89.27-37.45L89.27-37.45Q89.86-37.45 90.38-37.22 90.91-36.99 91.3-36.57 91.69-36.16 91.91-35.61 92.13-35.06 92.13-34.45L92.13-34.45Q92.13-33.79 91.88-33.24 91.64-32.69 91.24-32.31 90.83-31.93 90.3-31.71 89.76-31.49 89.17-31.49ZM98.52-1.17L99.5-5.08 99.94-5.37Q100.87-4.86 101.89-4.46 102.92-4.05 103.92-3.78 104.92-3.52 105.88-3.37 106.85-3.22 107.68-3.22L107.68-3.22Q108.83-3.22 109.78-3.49 110.73-3.76 111.4-4.25 112.07-4.74 112.45-5.42 112.83-6.1 112.83-6.93L112.83-6.93Q112.83-7.98 112.24-8.68 111.66-9.38 110.71-9.88 109.75-10.38 108.53-10.74 107.31-11.11 106.04-11.5 104.77-11.89 103.55-12.38 102.33-12.87 101.38-13.61 100.43-14.36 99.84-15.42 99.26-16.48 99.26-18.02L99.26-18.02Q99.26-19.73 100.01-21.25 100.77-22.78 102.14-23.91 103.5-25.05 105.42-25.71 107.34-26.37 109.68-26.37L109.68-26.37Q110.24-26.37 111.02-26.32 111.8-26.27 112.68-26.16 113.56-26.05 114.48-25.87 115.39-25.68 116.25-25.42L116.25-25.42 115.27-21.61 114.68-21.26Q114-21.63 113.18-21.9 112.37-22.17 111.52-22.33 110.68-22.49 109.88-22.57 109.07-22.66 108.46-22.66L108.46-22.66Q107.34-22.66 106.42-22.41 105.51-22.17 104.85-21.72 104.19-21.26 103.82-20.62 103.45-19.97 103.45-19.14L103.45-19.14Q103.45-18.07 104.04-17.36 104.63-16.65 105.6-16.15 106.58-15.65 107.81-15.28 109.05-14.92 110.34-14.53 111.63-14.14 112.87-13.65 114.1-13.16 115.08-12.4 116.05-11.65 116.64-10.56 117.22-9.47 117.22-7.91L117.22-7.91Q117.22-6.08 116.41-4.54 115.59-3 114.16-1.88 112.73-0.76 110.82-0.13 108.9 0.49 106.7 0.49L106.7 0.49Q104.82 0.49 102.69 0.05 100.55-0.39 98.52-1.17L98.52-1.17ZM142.32-4.83L142.32-2.2Q140.81-1.03 138.72-0.27 136.63 0.49 134.16 0.49L134.16 0.49Q131.53 0.49 129.39-0.43 127.26-1.34 125.74-2.98 124.23-4.61 123.41-6.9 122.59-9.18 122.59-11.89L122.59-11.89Q122.59-15.04 123.67-17.7 124.74-20.36 126.61-22.29 128.48-24.22 131.02-25.29 133.55-26.37 136.46-26.37L136.46-26.37Q137.14-26.37 137.94-26.31 138.73-26.25 139.51-26.1 140.29-25.95 141.03-25.74 141.76-25.54 142.32-25.24L142.32-25.24 141.34-21.19 140.81-20.95Q140.32-21.31 139.69-21.63 139.07-21.95 138.38-22.17 137.68-22.39 136.94-22.52 136.19-22.66 135.48-22.66L135.48-22.66Q133.85-22.66 132.39-22.01 130.94-21.36 129.84-20.13 128.74-18.9 128.11-17.1 127.48-15.31 127.48-13.01L127.48-13.01Q127.48-10.67 128.15-8.89 128.82-7.1 129.99-5.88 131.16-4.66 132.77-4.04 134.38-3.42 136.26-3.42L136.26-3.42Q137.39-3.42 138.97-3.7 140.56-3.98 142.32-4.83L142.32-4.83ZM149.54 0L149.54-25.88 153.16-25.88 153.89-18.12Q154.21-18.73 154.56-19.37 154.91-20.02 155.27-20.63 155.62-21.24 155.96-21.78 156.31-22.31 156.57-22.71L156.57-22.71Q157.11-23.46 157.78-24.13 158.45-24.8 159.24-25.31 160.02-25.81 160.9-26.09 161.77-26.37 162.78-26.37L162.78-26.37Q163.48-26.37 164.12-26.21 164.75-26.05 165.17-25.68L165.17-25.68 164.68-21.34Q164.24-21.46 163.81-21.5 163.39-21.53 162.97-21.53L162.97-21.53Q161.24-21.53 159.96-20.97 158.67-20.41 157.66-19.45 156.65-18.48 155.83-17.19 155.01-15.89 154.18-14.4L154.18-14.4 154.18 0 149.54 0ZM170.9 0L170.9-25.88 175.54-25.88 175.54 0 170.9 0ZM173.25-31.49L173.25-31.49Q172.64-31.49 172.1-31.71 171.56-31.93 171.17-32.32 170.78-32.71 170.56-33.24 170.34-33.76 170.34-34.4L170.34-34.4Q170.34-35.03 170.59-35.6 170.83-36.16 171.23-36.57 171.64-36.99 172.18-37.22 172.73-37.45 173.34-37.45L173.34-37.45Q173.93-37.45 174.46-37.22 174.98-36.99 175.37-36.57 175.76-36.16 175.98-35.61 176.2-35.06 176.2-34.45L176.2-34.45Q176.2-33.79 175.96-33.24 175.71-32.69 175.31-32.31 174.91-31.93 174.37-31.71 173.83-31.49 173.25-31.49ZM188.84-18.55L188.84-4.39Q189.53-4.05 190.3-3.83 191.07-3.61 191.84-3.48 192.6-3.34 193.31-3.28 194.02-3.22 194.53-3.22L194.53-3.22Q196.54-3.22 198.21-3.98 199.88-4.74 201.08-6.08 202.27-7.42 202.93-9.24 203.59-11.06 203.59-13.18L203.59-13.18Q203.59-15.06 203.07-16.75 202.54-18.43 201.58-19.7 200.61-20.97 199.26-21.72 197.9-22.46 196.27-22.46L196.27-22.46Q194.24-22.46 192.37-21.37 190.5-20.29 188.84-18.55L188.84-18.55ZM187.72-25.88L188.55-21.39Q189.41-22.22 190.44-23.1 191.48-23.97 192.7-24.71 193.92-25.44 195.34-25.9 196.75-26.37 198.37-26.37L198.37-26.37Q200.73-26.37 202.6-25.33 204.47-24.29 205.78-22.57 207.08-20.85 207.78-18.62 208.47-16.38 208.47-13.99L208.47-13.99Q208.47-10.84 207.31-8.18 206.15-5.52 204.18-3.59 202.2-1.66 199.55-0.59 196.9 0.49 193.92 0.49L193.92 0.49Q192.7 0.49 191.31 0.32 189.92 0.15 188.84-0.15L188.84-0.15 188.84 13.09 184.21 13.09 184.21-25.88 187.72-25.88ZM217.72-6.49L217.72-22.17 212.5-22.17 212.89-24.56Q214.79-24.95 215.94-25.55 217.09-26.15 217.83-27.05 218.58-27.95 219.08-29.24 219.58-30.52 220.21-32.3L220.21-32.3 222.36-32.3 222.36-25.88 231.74-25.88 230.76-22.17 222.36-22.17 222.36-7.71Q222.36-6.54 222.72-5.73 223.07-4.91 223.71-4.39 224.34-3.88 225.24-3.65 226.15-3.42 227.25-3.42L227.25-3.42Q228.37-3.42 229.48-3.63 230.59-3.83 231.59-4.2L231.59-4.2 231.59-1.56Q230.05-0.56 228.36-0.04 226.66 0.49 224.9 0.49L224.9 0.49Q223.27 0.49 221.95 0.02 220.63-0.44 219.69-1.32 218.75-2.2 218.24-3.5 217.72-4.81 217.72-6.49L217.72-6.49Z" opacity="1" transform="matrix(1,0,0,1,0,0)" fill="#ffffff" class="wordmark-text-0" data-fill-palette-color="primary" id="text-0"></path></svg></g></svg></g></svg></g></svg></g><g transform="matrix(1,0,0,1,0,0.2253068741340698)"><svg viewBox="0 0 89.6172395787041 90.1227496536289" height="90.1227496536289" width="89.6172395787041"><g><svg xmlns="http://www.w3.org/2000/svg" xmlns:xlink="http://www.w3.org/1999/xlink" version="1.1" x="0" y="0" viewBox="6.479200067126838 6.275100002099187 86.96172050606162 87.45225141345475" enable-background="new 0 0 100 100" xml:space="preserve" height="90.1227496536289" width="89.6172395787041" class="icon-icon-0" data-fill-palette-color="accent" id="icon-0"><path d="M51.252 60.102c-2.825 3.256-5.248 6.828-7.782 10.308-4.779 6.563-9.354 12.968-12.029 20.734-0.975 2.827 3.92 2.921 5.427 2.214 2.583-1.211 4.552-3.644 6.22-5.883 4.631-6.217 10.462-11.023 15.879-16.505 5.862-5.932 11.824-12.092 16.966-18.664 2.413-3.084 4.167-6.414 5.78-9.969 1.505-3.316 4.157-7.047 3.935-10.834-0.04-0.684-0.163-1.517-0.934-1.772-2.652-0.88-5.5-1.631-8.165-2.406-3.26-0.948-5.198 4.987-6.358 6.998-3.722 6.45-6.016 13.529-11.565 18.67C56.111 55.322 53.504 57.505 51.252 60.102zM39.322 86.632c-0.185 0.258-0.127 0.179-0.009 0.014-0.564 0.791-2.438 3.762-3.417 3.811 0.08-0.004 1.557-2.896 1.645-3.057 1.324-2.431 2.415-4.979 3.687-7.436 0.532 0.693 1.12 1.286 1.911 1.669C41.732 83.205 40.548 84.92 39.322 86.632zM68.157 46.85c0.688 0.392 2.663 1.991 3.404 1.041 0.841-1.077-1.426-2.799-2.368-3.088 1.776-3.885 3.466-7.616 5.647-11.3 0.485-0.82 0.962-1.645 1.409-2.486 0.928 0.242 1.803 0.034 2.679 0.511 0.581 0.316 2.174 0.456 2.148 1.222-0.121 3.599-2.67 7.767-4.166 10.983 0.047-0.103 0.059-0.127-0.001 0.002-2.027 4.359-4.99 7.969-8.178 11.521-0.18-0.412-0.568-0.967-1.022-1.098-1.099-0.317-1.063 1.134-1.238 1.156-0.185 0.531 0.397 1.988 0.139 2.298-0.568-1.278-2.415-0.885-2.307 0.504 0.03 0.387-0.005 0.731 0.246 1.067 0.567 0.759-2.845 3.769-3.607 4.595-0.165-1.407-1.396-2.355-2.665-2.684-1.821-0.471-2.227 0.686-1.041 1.821 0.586 0.561 2.156 1.172 2.343 2.098 0.147 0.727-2.686 3.19-3.344 3.871-1.409 1.455-2.88 2.848-4.364 4.226-0.347-0.73-2.667-2.248-2.386-0.352 0.094 0.566 0.565 2.032 0.162 2.41-0.513-1.505-1.896-1.946-2.312-0.211-0.101 0.421 0.038 0.895 0.019 1.322-0.078 1.743-1.734 2.698-2.948 3.971-0.388-0.906-1.273-1.749-2.219-2.056 1.646-2.806 3.82-5.249 5.849-7.776 2.282-2.842 4.209-5.949 6.522-8.765C58.825 56.457 64.825 52.824 68.157 46.85z" fill="#ffffff" data-fill-palette-color="accent"></path><path d="M77.578 26.599c2.077-0.098 3.85-2.302 4.875-3.881 1.291-1.991 2.416-4.105 3.66-6.128 1.165-1.895 3.416-5.149 2.443-7.484 0.479 0.077 0.958 0.153 1.437 0.229-0.514 2.536-1.431 4.824-2.813 7.007-1.372 2.167-3.202 4.198-3.562 6.83-0.191 1.4-0.259 5.407 1.014 6.308 1.006 0.711 3.323 0.029 3.022-1.46-0.397-1.967-0.842-3.994-0.19-5.96 0.863-2.605 2.933-4.811 4.181-7.251 1.393-2.724 3.815-8.526-1.377-8.531-0.317 0-0.28 0-0.077 0-1.536-0.005-3.648-0.093-4.714 1.225C84.263 9 85.21 11.419 84.323 13.216c-1.067 2.163-2.519 4.101-3.63 6.237-0.93 1.788-1.914 3.972-3.96 4.701C74.879 24.816 76.026 26.671 77.578 26.599z" fill="#ffffff" data-fill-palette-color="accent"></path><path d="M12.13 86.398C18.223 86.023 24.012 83.14 29 79.813c12.796-8.538 18.322-22.185 22.992-36.247 0.545-1.641 1.084-3.284 1.633-4.924 1.024-3.06 0.64-1.912 0-0.001 1.523-4.554-2.221-7.835-6.633-7.527-6.868 0.48-7.029 7.842-7.94 13.127-1.179 6.835-5.762 12.81-8.843 18.89-3.371 6.651-9.416 11.777-16.179 14.82-2.221 1-8.386 2.71-7.456 6.079C7.219 86.357 10.153 86.52 12.13 86.398zM26.35 73.938c1.31-1.218 2.557-2.533 3.615-3.978 0.428-0.584 1.517-3.107 2.155-2.675 0.575 0.389 3.381 2.58 3.297 0.583-0.056-1.329-1.463-2.421-2.67-2.651 2.706-5.407 5.954-10.45 8.136-16.113 0.742 0.357 3.022 1.733 3.647 0.672 0.709-1.207-1.86-2.703-2.897-2.729 0.897-3.084 0.382-6.661 1.958-9.542 0.726-1.326 1.979-1.968 3.483-1.827 2.509 0.235 3.207 2.177 2.88 4.438-1.006-1.745-5.471-1.06-4.411 1.045 0.164 0.327 3.448 0.595 4.064 0.605-1.452 5.316-4.033 10.851-6.341 15.843-0.3-0.584-0.84-0.939-1.476-1.075-1.414-0.323-0.832 1.525-0.929 1.581 0.173 1.059 1.434 1.529 0.916 2.521-1.189-2.216-3.583 1.282-1.128 2.055-1.054 1.83-1.024-0.385-2.116 1.019-0.424 0.531-0.252 1.137 0.082 1.656 0.986 1.532-5.876 7.08-7.07 8.003-0.457-1.027-2.169-1.619-2.227-0.038-0.034 0.91 0.24 1.492-0.585 2.034-0.177-0.678-0.82-1.256-1.573-0.919-0.99 0.425-0.724 2.163-0.609 2.173-0.225 0.561-2.156 1.33-2.784 1.662-2.006 1.063-3.97 1.957-6.1 2.689-0.141 0.055-0.31 0.116-0.515 0.183C20.296 78.891 23.511 76.577 26.35 73.938z" fill="#ffffff" data-fill-palette-color="accent"></path><path d="M45.458 30.534c2.393-2.399 4.527-4.982 5.855-8.13 1.384-3.281 3.127-8.604 1.948-12.139 2.083 0.209 0.487 6.354 0.235 7.354-0.98 3.888-3.307 8.236-1.86 12.297 0.391 1.095 1.829 2.762 2.73 1.019 0.554-1.072-0.417-2.76-0.311-3.985 0.317-3.662 2.072-7.023 2.554-10.67 0.423-3.209 1.597-8.451-2.763-9.182-1.393-0.233-3.958-0.179-4.18 1.688-0.09 0.757 0.353 1.387 0.695 2.013 0.572 1.045 0.492 1.984 0.323 3.14-0.605 4.134-1.943 8.187-4.745 11.34-0.926 1.042-3.024 2.322-2.798 3.906C43.293 30.249 44.407 31.587 45.458 30.534z" fill="#ffffff" data-fill-palette-color="accent"></path></svg></g></svg></g></svg></g><defs></defs></svg><rect width="395.52" height="66.85795261338855" fill="none" stroke="none" visibility="hidden"></rect></g></svg></g></svg>